<svg xmlns="http://www.w3.org/2000/svg" xmlns:xlink="http://www.w3.org/1999/xlink" width="500" zoomAndPan="magnify" viewBox="0 0 375 374.999991" height="500" preserveAspectRatio="xMidYMid meet" version="1.0"><path fill="#ffffff" d="M 183.652344 329.007812 L 160.015625 329.007812 C 159.777344 329.007812 159.535156 328.765625 159.535156 328.527344 L 159.535156 304.886719 C 159.535156 304.648438 159.777344 304.40625 160.015625 304.40625 L 183.652344 304.40625 C 183.894531 304.40625 184.132812 304.648438 184.132812 304.886719 L 184.132812 328.527344 C 184.054688 328.765625 183.894531 329.007812 183.652344 329.007812 M 215.867188 304.886719 L 215.867188 328.527344 C 215.867188 328.765625 215.625 329.007812 215.382812 329.007812 L 191.746094 329.007812 C 191.507812 329.007812 191.265625 328.765625 191.265625 328.527344 L 191.265625 304.886719 C 191.265625 304.648438 191.507812 304.40625 191.746094 304.40625 L 215.382812 304.40625 C 215.625 304.488281 215.867188 304.648438 215.867188 304.886719 Z M 191.746094 272.675781 L 215.382812 272.675781 C 215.625 272.675781 215.867188 272.917969 215.867188 273.15625 L 215.867188 296.792969 C 215.867188 297.035156 215.625 297.277344 215.382812 297.277344 L 191.746094 297.277344 C 191.507812 297.277344 191.265625 297.035156 191.265625 296.792969 L 191.265625 273.15625 C 191.347656 272.835938 191.507812 272.675781 191.746094 272.675781 Z M 192.066406 183.332031 Z M 352.644531 362.339844 L 187.660156 197.4375 L 22.757812 362.339844 Z M 192.308594 183.574219 L 242.386719 233.652344 C 247.035156 228.125 250.800781 221.957031 253.6875 215.144531 C 257.210938 206.730469 259.132812 197.4375 259.132812 187.660156 C 259.132812 167.949219 251.121094 150.082031 238.222656 137.179688 C 225.320312 124.277344 207.453125 116.265625 187.742188 116.265625 C 168.027344 116.265625 150.160156 124.277344 137.257812 137.179688 C 124.359375 150.082031 116.347656 167.949219 116.347656 187.660156 C 116.347656 197.4375 118.269531 206.652344 121.792969 215.144531 C 124.597656 221.875 128.445312 228.125 133.09375 233.652344 L 183.574219 183.171875 L 183.734375 183.09375 L 183.8125 183.011719 L 184.292969 182.613281 L 184.375 182.53125 L 184.457031 182.453125 L 184.777344 182.453125 L 184.9375 182.371094 L 185.015625 182.292969 C 185.738281 182.050781 186.539062 181.890625 187.339844 181.890625 C 188.222656 181.890625 189.023438 182.050781 189.824219 182.371094 L 189.984375 182.371094 C 190.0625 182.371094 190.144531 182.453125 190.222656 182.453125 L 191.425781 182.453125 L 191.507812 182.53125 L 191.585938 182.613281 L 191.667969 182.691406 Z M 362.339844 181.652344 L 362.339844 94.871094 L 264.023438 151.601562 C 268.429688 160.816406 271.152344 170.992188 271.875 181.652344 Z M 362.339844 281.492188 L 362.339844 194.710938 L 271.792969 194.710938 C 271.074219 203.6875 268.910156 212.179688 265.625 220.191406 C 264.984375 221.714844 264.34375 223.15625 263.621094 224.597656 Z M 362.339844 353.605469 L 362.339844 296.472656 L 257.132812 235.738281 C 255.449219 238.222656 253.605469 240.542969 251.601562 242.867188 Z M 13.0625 296.472656 L 13.0625 353.605469 L 123.796875 242.867188 C 121.875 240.625 120.03125 238.222656 118.269531 235.738281 Z M 13.0625 194.710938 L 13.0625 281.570312 L 111.777344 224.597656 C 111.058594 223.15625 110.417969 221.714844 109.777344 220.191406 C 106.492188 212.257812 104.328125 203.6875 103.605469 194.710938 Z M 13.0625 94.871094 L 13.0625 181.730469 L 103.527344 181.730469 C 104.246094 170.992188 107.050781 160.898438 111.378906 151.683594 Z M 79.085938 13.0625 L 13.0625 13.0625 L 13.0625 79.886719 L 117.789062 140.382812 C 120.832031 135.976562 124.199219 131.8125 127.964844 128.042969 C 131.570312 124.4375 135.496094 121.152344 139.742188 118.269531 Z M 181.167969 13.0625 L 94.070312 13.0625 L 150.960938 111.617188 C 160.175781 107.132812 170.351562 104.328125 181.089844 103.527344 L 181.089844 13.0625 Z M 281.25 13.0625 L 194.230469 13.0625 L 194.230469 103.527344 C 204.96875 104.328125 215.144531 107.210938 224.359375 111.617188 Z M 362.339844 13.0625 L 296.3125 13.0625 L 235.578125 118.1875 C 239.824219 121.074219 243.75 124.359375 247.355469 127.964844 C 251.121094 131.730469 254.566406 135.898438 257.53125 140.304688 L 362.257812 79.808594 L 362.257812 13.0625 Z M 6.492188 0 L 368.832031 0 C 372.4375 0 375.320312 2.882812 375.320312 6.492188 L 375.320312 368.832031 C 375.320312 372.4375 372.4375 375.320312 368.832031 375.320312 L 6.492188 375.320312 C 2.882812 375.402344 0 372.4375 0 368.832031 L 0 6.492188 C 0 2.882812 2.882812 0 6.492188 0 Z M 159.9375 272.675781 L 183.574219 272.675781 C 183.8125 272.675781 184.054688 272.917969 184.054688 273.15625 L 184.054688 296.792969 C 184.054688 297.035156 183.8125 297.277344 183.574219 297.277344 L 159.9375 297.277344 C 159.695312 297.277344 159.457031 297.035156 159.457031 296.792969 L 159.457031 273.15625 C 159.535156 272.835938 159.695312 272.675781 159.9375 272.675781 Z M 159.9375 272.675781 " fill-opacity="1" fill-rule="evenodd"/></svg>